<svg width="137" height="31" viewBox="0 0 137 31" fill="none" xmlns="http://www.w3.org/2000/svg">
<g clip-path="url(#clip0_12_140)">
<path d="M78.466 28.3611V14.5269H75.96V9.27243C75.96 9.10725 76.0886 8.97402 76.2477 8.97402H81.0952V12.4326H82.3786C83.0912 11.3332 83.9879 10.4809 85.0686 9.87859C86.1485 9.27554 87.4935 8.97402 89.1029 8.97402C91.6494 8.97402 93.6213 9.69861 95.017 11.1478C96.4127 12.597 97.1105 14.5378 97.1105 16.9702V28.3611H92.0369V17.9535C92.0369 16.5573 91.6751 15.4946 90.9516 14.7645C90.228 14.0345 89.1738 13.6698 87.7883 13.6698C86.4027 13.6698 85.3477 14.0345 84.6249 14.7645C83.9014 15.4946 83.5396 16.5573 83.5396 17.9535V28.3611H78.466Z" fill="black" style="fill:black;fill-opacity:1;"/>
<path d="M51.7561 23.2414V2.95135H46.6326V23.2414V28.3611H51.7561H64.0195V23.2414H51.7561Z" fill="black" style="fill:black;fill-opacity:1;"/>
<path d="M67.9695 2.89679V7.1259C67.9695 7.24897 68.0693 7.34873 68.1925 7.34873H72.87C72.9931 7.34873 73.093 7.24897 73.093 7.1259V2.89679C73.093 2.77372 72.9931 2.67396 72.87 2.67396H68.1925C68.0693 2.67396 67.9695 2.77372 67.9695 2.89679Z" fill="black" style="fill:black;fill-opacity:1;"/>
<path d="M69.8159 8.97478H67.9134H65.0464V14.5682H67.9134V28.3611H73.0369V8.97478H69.8159Z" fill="black" style="fill:black;fill-opacity:1;"/>
<path d="M122.146 28.3595L119.135 24.3151V20.2106L122.146 16.1186H131.352V14.6523L137 13.2966V28.3603H131.352V25.6482L128.674 28.3603H122.146V28.3595ZM125.153 24.7678H127.867L131.352 21.2858V19.5266H125.153L123.686 20.9563L123.722 23.3388L125.153 24.7685V24.7678Z" fill="black" style="fill:black;fill-opacity:1;"/>
<path d="M131.352 14.6523L129.884 13.186H120.729V9.22803H132.929L137 13.2959L131.352 14.6562V14.6523Z" fill="black" style="fill:black;fill-opacity:1;"/>
<path d="M117.936 9.22802H112.579L105.798 18.6009V9.22957H100.798V28.3595H105.798V19.1253L112.584 28.3603H117.863L111.071 18.3298L117.936 9.22802Z" fill="black" style="fill:black;fill-opacity:1;"/>
<path d="M30.3472 31.3148H18.3848L10.7803 23.7152V14.2885H16.632V21.2929L20.809 25.4674H27.9239L32.1359 21.2578V14.2885H37.9877V23.6801L30.3472 31.3148Z" fill="#51EB51" style="fill:#51EB51;fill:color(display-p3 0.3176 0.9216 0.3176);fill-opacity:1;"/>
<path d="M27.2074 17.0263H21.3556V10.0219L17.1787 5.84737H10.0638L5.85177 10.057V17.0263H0V7.63469L7.64044 0H19.6028L27.2074 7.59963V17.0263Z" fill="#51EB51" style="fill:#51EB51;fill:color(display-p3 0.3176 0.9216 0.3176);fill-opacity:1;"/>
</g>
<defs>
<clipPath id="clip0_12_140">
<rect width="137" height="31" fill="white" style="fill:white;fill-opacity:1;"/>
</clipPath>
</defs>
</svg>
